<?xml version="1.0" standalone="no"?>
<!DOCTYPE svg PUBLIC "-//W3C//DTD SVG 20010904//EN"
 "http://www.w3.org/TR/2001/REC-SVG-20010904/DTD/svg10.dtd">
<svg version="1.0" xmlns="http://www.w3.org/2000/svg"
 width="222.000000pt" height="222.000000pt" viewBox="0 0 222.000000 222.000000"
 preserveAspectRatio="xMidYMid meet">
<metadata>
Created by potrace 1.11, written by Peter Selinger 2001-2013
</metadata>
<g transform="translate(0.000000,222.000000) scale(0.100000,-0.100000)"
fill="#000000" stroke="none">
<path d="M30 1110 l0 -1110 1085 0 1085 0 0 1110 0 1110 -1085 0 -1085 0 0
-1110z m1958 901 c9 -1 12 -56 12 -240 l0 -238 -636 -2 c-350 -1 -640 -3 -644
-6 -4 -2 -7 -38 -7 -80 l-1 -75 322 0 322 0 -1 -187 0 -186 -321 0 -320 0 -1
-141 c-1 -78 -2 -147 -2 -153 -1 -10 -56 -13 -241 -13 l-240 0 0 658 c0 362 2
661 4 663 4 3 1713 3 1754 0z m11 -1224 l0 -582 -242 0 -242 0 0 575 c-1 316
1 578 3 583 2 4 111 7 242 7 l238 0 1 -583z m-645 -254 c-1 -170 -2 -313 -3
-318 -1 -7 -85 -10 -238 -10 l-238 0 -1 310 c-1 171 0 313 3 318 2 4 111 7
241 7 l238 0 -2 -307z m-643 -25 c1 -28 1 -291 0 -298 -1 -3 -108 -5 -238 -5
l-238 0 -3 163 -2 162 240 0 240 0 1 -22z"/>
</g>
</svg>
